<svg height="100%" width="100%" viewBox="0 0 420 154"
     xmlns="http://www.w3.org/2000/svg">
    <g xmlns="http://www.w3.org/2000/svg" fill="#343a40" id="shape-svg">
        <g id="Слой_2">
            <g id="Слой_1-2">
                <g id="_151616ff">
                    <path transform="translate(0, 0) scale(1.3,1.3)"
                          d="M316.26,0c2.35,0,4.71,0,7.07,0q0,8.63,0,17.24c-6.84.07-13.68.12-20.5.44-2.8.13-5.61.2-8.4.53,9.62.66,19.26.78,28.88.92q0,16.6,0,33.21c-4,.14-7.91.39-11.86.52,3.94.32,7.9.54,11.86.59,0,15,0,30,0,45-2.46.09-4.93-.09-7.39-.14C306,98,296.1,98,286.17,98.2c-6.67.18-13.35.32-20,.87,11.81.75,23.65.94,35.49.9,7.22,0,14.45-.19,21.66-.42,0,6,0,11.92,0,17.88-2.56.1-5.11,0-7.67,0H5.84c-1.95,0-3.89,0-5.84-.06,0-2.88,0-5.76,0-8.64,1.15,0,2.31,0,3.46,0,6.25.19,12.5.12,18.76.14,9.45,0,18.9-.3,28.34-.9-2.89-.26-5.79-.38-8.69-.53Q21,106.73.07,107.27C0,98.73.06,90.2,0,81.65c0-3.06-.06-6.13,0-9.19q10.07-.15,20.1-.83c-3.77-.52-7.59-.55-11.39-.75-2.9-.14-5.81-.12-8.71-.24-.07-2,0-4,0-6V26.84c0-2,0-4,0-6.06,7.49,0,15,0,22.46-.26,3.59-.14,7.19-.26,10.76-.68C22.23,19,11.12,18.83,0,19c0-6.34,0-12.67,0-19C17.69,0,35.31,0,52.93,0M167.56,10.36c1,.19,2.09.35,3.15.45a141.83,141.83,0,0,0,20.09.34,64.13,64.13,0,0,0,7.82-.79,128.27,128.27,0,0,0-19.1-.87c-4,.14-8,.34-12,.87M50.5,13.9c1.59.27,3.19.47,4.8.58a145.64,145.64,0,0,0,17.85.25,81.87,81.87,0,0,0,8.69-.83,133.55,133.55,0,0,0-31.34,0m-2.68,86.69c-2.2.1-4.41.2-6.6.48,9.74.69,19.5.88,29.26.92,10.06,0,20.12-.21,30.16-.92-2.89-.37-5.8-.45-8.7-.56q-22.05-.92-44.12.08m186.68,6c-1.28.1-2.54.28-3.8.5,3.58.47,7.18.72,10.79.84a136,136,0,0,0,20.28-.84,70.21,70.21,0,0,0-8.68-.82A139,139,0,0,0,234.5,106.63Z"></path>
                </g>
            </g>
        </g>
    </g>
    <path xmlns="http://www.w3.org/2000/svg" d="M42.34-41.61Q42.70-41.17 43.51-20.40Q44.31 0.36 44.31 4.23L44.31 4.23Q44.16 4.16 43.98 3.69Q43.80 3.21 43.51 3.21L43.51 3.21L42.85 3.36Q42.19 3.50 41.79 3.80Q41.39 4.09 41.24 4.16L41.24 4.16Q41.03 4.31 40.44 4.31L40.44 4.31L40.00 4.16Q39.78 4.01 39.49 3.58Q39.20 3.14 38.91 3.07L38.91 3.07L38.69 2.99Q38.18 2.99 37.63 3.50Q37.08 4.01 36.94 4.16L36.94 4.16L35.48 4.31Q35.33-3.36 35.04-10.73L35.04-10.73L34.38-27.67Q34.02-27.23 33.73-26.83Q33.43-26.43 33.07-25.99L33.07-25.99L32.12-24.89L31.97-24.67L31.10-23.65L24.75-18.03L22.34-20.66L19.93-23.43L17.59-25.91Q16.43-27.08 15.91-27.74L15.91-27.74L14.89-28.98Q15.26-25.48 15.33-22.05L15.33-22.05L15.55-18.91L16.72-0.29Q16.43-0.29 16.24-0.73Q16.06-1.17 15.84-1.17L15.84-1.17Q15.40-1.17 15.26-1.09L15.26-1.09Q14.75-0.95 14.27-0.73Q13.80-0.51 13.65-0.36L13.65-0.36L12.85-0.22Q12.77-0.22 12.34-0.36L12.34-0.36Q12.19-0.44 11.86-0.84Q11.53-1.24 11.31-1.31L11.31-1.31Q11.24-1.39 11.02-1.39L11.02-1.39Q10.58-1.39 10.07-0.95Q9.56-0.51 9.27-0.36L9.27-0.36L8.83-0.22L8.25-0.29Q7.96-0.29 7.88-0.22L7.88-0.22L7.74-3.65Q7.45-10.66 7.15-14.16L7.15-14.16Q6.86-18.61 6.13-26.50L6.13-26.50Q5.18-36.94 5.11-46.87L5.11-46.87Q5.55-47.08 6.13-47.08L6.13-47.08L7.23-47.01Q8.54-46.65 9.27-46.65L9.27-46.65L10.15-46.57Q10.66-46.57 10.95-47.01L10.95-47.01Q11.10-47.16 11.24-47.60Q11.39-48.03 11.53-48.03L11.53-48.03Q11.68-48.03 11.75-47.60L11.75-47.60Q11.90-47.16 11.90-46.28L11.90-46.28L11.90-45.33Q11.90-44.89 12.04-44.16L12.04-44.16Q12.19-43.51 12.59-43.25Q12.99-43.00 13.14-42.85L13.14-42.85L13.14-44.16Q13.07-44.24 12.77-44.71Q12.48-45.19 12.48-45.77L12.48-45.77L13.21-44.82L13.14-46.79Q13.14-47.74 13.50-48.03L13.50-48.03Q13.50-47.08 13.61-45.88Q13.72-44.68 13.72-44.09L13.72-44.09L14.53-43.07L16.57-40.52Q18.10-38.62 21.32-35.11L21.32-35.11L23.72-32.48Q24.02-32.19 24.31-31.83Q24.60-31.46 24.89-31.24L24.89-31.24L25.26-30.73Q25.26-30.59 25.29-30.55Q25.33-30.51 25.33-30.51L25.33-30.51L25.55-30.59L25.70-30.81L26.13-31.24Q26.57-31.68 26.86-32.19L26.86-32.19Q28.10-33.58 28.47-34.16L28.47-34.16Q29.93-35.99 31.24-38.54L31.24-38.54Q31.97-39.71 32.45-40.59Q32.92-41.46 33.21-42.05L33.21-42.05L34.31-44.09L34.31-45.26Q34.75-45.41 35.04-45.41L35.04-45.41L36.50-45.63Q40.30-46.28 41.03-46.28L41.03-46.28Q41.17-46.28 41.17-45.84L41.17-45.84L41.17-42.78Q41.17-41.10 41.76-41.10L41.76-41.10Q41.97-41.10 42.16-41.28Q42.34-41.46 42.34-41.61L42.34-41.61ZM13.87-41.46Q14.16-41.32 14.49-41.32Q14.82-41.32 15.11-41.32L15.11-41.32Q14.75-41.83 14.45-42.27Q14.16-42.70 13.80-43.14L13.80-43.14Q13.87-42.49 13.87-41.46L13.87-41.46ZM42.34-41.61L42.34-41.61ZM62.78-41.54Q63.66-41.54 63.95-41.03L63.95-41.03Q64.17-40.88 64.31-40.44L64.31-40.44L64.39-39.86L64.75-38.62Q64.90-37.96 65.26-37.59L65.26-37.59L65.63-36.72Q65.92-36.43 66.28-36.43L66.28-36.43L66.87-36.50Q67.01-36.57 67.63-36.86Q68.25-37.16 68.62-37.16L68.62-37.16Q68.84-37.16 68.84-37.08L68.84-37.08Q68.84-36.86 68.25-36.43L68.25-36.43Q67.89-35.84 67.23-35.48L67.23-35.48Q66.21-34.46 65.99-34.31L65.99-34.31Q64.61-33.14 64.02-31.75L64.02-31.75Q63.66-31.02 63.66-30.37L63.66-30.37L63.66-30.08Q63.66-29.78 63.80-29.05L63.80-29.05Q64.24-30.00 65.19-31.24L65.19-31.24Q66.14-32.27 66.50-32.92L66.50-32.92Q67.74-34.16 68.55-34.78Q69.35-35.41 69.93-35.26L69.93-35.26Q67.96-34.31 65.99-31.46L65.99-31.46Q64.39-28.98 63.36-25.99L63.36-25.99Q63.00-24.82 62.82-23.29Q62.63-21.75 62.56-21.17L62.56-21.17Q62.49-20.66 62.49-19.56L62.49-19.56Q62.49-17.81 62.78-16.57L62.78-16.57Q62.85-15.77 63.22-14.96L63.22-14.96Q63.29-14.67 63.55-13.91Q63.80-13.14 64.17-12.63L64.17-12.63Q64.53-11.97 65.34-11.17L65.34-11.17Q66.14-10.37 66.50-10.22L66.50-10.22Q67.23-9.71 67.96-9.64L67.96-9.64Q68.62-9.42 69.93-9.27L69.93-9.27Q70.37-9.42 71.03-9.45Q71.69-9.49 72.05-9.49L72.05-9.49Q72.78-9.56 73.22-9.85L73.22-9.85Q73.37-9.85 73.55-9.89Q73.73-9.93 74.02-10.00L74.02-10.00L74.24-10.15Q75.12-10.37 75.92-11.02L75.92-11.02Q76.72-11.46 77.60-12.34L77.60-12.34Q79.20-14.16 80.15-16.21L80.15-16.21Q81.76-19.93 81.76-24.38L81.76-24.38L81.76-25.48Q81.69-27.45 81.10-29.42L81.10-29.42L80.96-29.93Q80.45-31.32 78.84-33.51L78.84-33.51L77.89-34.46Q77.53-34.82 77.31-34.89L77.31-34.89L76.87-35.26L75.92-35.70L75.19-35.77Q75.19-35.77 74.17-35.62L74.17-35.62Q73.51-35.62 72.56-35.41L72.56-35.41L70.81-34.89Q70.23-34.89 70.15-34.97Q70.08-35.04 70.23-35.15Q70.37-35.26 70.37-35.41L70.37-35.41Q70.44-35.48 70.44-35.92L70.44-35.92Q70.37-36.13 70.15-36.35L70.15-36.35Q69.93-36.79 69.57-37.05Q69.20-37.30 69.06-37.38L69.06-37.38Q68.18-37.74 68.18-37.96L68.18-37.96Q68.11-38.32 67.82-38.54L67.82-38.54L67.82-38.84Q67.82-39.20 67.96-39.35L67.96-39.35Q67.96-39.35 68.98-40.08L68.98-40.08Q69.13-40.15 69.46-40.33Q69.79-40.52 69.79-40.66L69.79-40.66L69.79-41.17Q69.64-41.54 69.06-41.76L69.06-41.76L67.45-42.56Q67.23-42.70 67.23-43.07L67.23-43.07L67.16-43.80Q67.16-44.02 66.94-44.09L66.94-44.09Q67.53-44.24 68.33-44.38Q69.13-44.53 70.30-44.82L70.30-44.82L72.71-45.41L75.77-45.41Q76.87-45.41 78.47-44.97L78.47-44.97Q79.64-44.75 81.32-43.65L81.32-43.65L82.49-43.07L83.51-42.12Q84.83-41.17 85.56-40.44L85.56-40.44Q87.31-38.47 88.48-36.21L88.48-36.21Q88.62-35.84 89.24-34.60Q89.86-33.36 90.16-32.34L90.16-32.34L90.37-31.68Q91.03-29.35 91.25-26.94L91.25-26.94Q91.40-25.18 91.40-24.24L91.40-24.24L91.32-22.34Q90.96-17.74 89.79-14.60L89.79-14.60Q88.26-10.37 85.92-7.30L85.92-7.30Q84.75-5.62 83.00-4.09L83.00-4.09Q81.61-2.85 79.20-1.61L79.20-1.61Q77.45-0.80 76.87-0.66L76.87-0.66L76.07-0.36L75.04-0.15Q73.07 0.44 70.81 0.51L70.81 0.51Q70.59 0.58 69.86 0.58L69.86 0.58Q68.91 0.58 67.82 0.36L67.82 0.36L67.60 0.29L67.16 0.29Q66.36 0.22 65.41-0.07Q64.46-0.36 63.44-0.73L63.44-0.73Q61.03-1.82 60.01-2.55L60.01-2.55Q58.91-3.43 57.30-5.33L57.30-5.33Q56.43-6.28 55.26-8.47L55.26-8.47Q54.53-9.85 53.95-11.68L53.95-11.68Q52.93-14.89 52.85-18.18L52.85-18.18L52.78-19.64Q52.78-21.75 53.14-24.53L53.14-24.53Q53.80-27.74 54.90-30.66L54.90-30.66Q55.84-32.92 57.89-36.43L57.89-36.43Q60.23-39.57 62.41-41.32L62.41-41.32L62.78-41.54ZM128.12-47.16Q128.41-47.16 128.77-47.01Q129.14-46.87 129.36-46.87L129.36-46.87Q127.09-39.64 124.83-34.09L124.83-34.09L124.32-32.78Q123.88-31.61 123.37-30.26Q122.86-28.91 122.20-27.38L122.20-27.38L119.79-21.10Q118.19-16.86 116.44-11.75L116.44-11.75Q114.90-7.15 114.03-3.07L114.03-3.07L113.88-2.26Q113.73-2.19 113.30-2.19L113.30-2.19Q113.00-2.19 112.64-2.26Q112.27-2.34 111.98-2.41L111.98-2.41Q111.76-2.26 111.58-2.04Q111.40-1.82 111.33-1.82L111.33-1.82Q110.59-1.39 110.08-1.39L110.08-1.39L108.77-1.90Q108.19-1.82 107.71-1.24Q107.24-0.66 107.09-0.44L107.09-0.44L105.85 0.22Q103.81-5.40 101.84-12.34L101.84-12.34Q100.45-16.86 98.77-23.07L98.77-23.07L94.24-40.66Q94.75-41.03 95.34-41.17Q95.92-41.32 96.94-41.39L96.94-41.39Q97.16-41.39 97.56-41.43Q97.97-41.46 98.48-41.61L98.48-41.61Q98.62-41.61 98.99-41.65Q99.35-41.68 99.64-41.83Q99.94-41.97 100.08-42.34L100.08-42.34Q100.16-42.49 100.23-42.96Q100.30-43.43 100.45-43.43L100.45-43.43Q100.52-43.43 100.74-43.14L100.74-43.14Q100.96-42.85 101.07-42.34Q101.18-41.83 101.25-41.61L101.25-41.61Q101.54-40.59 101.76-40.08L101.76-40.08Q102.13-39.49 102.53-39.38Q102.93-39.27 103.08-39.20L103.08-39.20L102.64-40.95Q102.13-42.34 102.13-43.14L102.13-43.14Q102.13-43.65 102.27-43.87L102.27-43.87Q102.42-43.29 103.08-41.32L103.08-41.32Q103.81-39.57 104.17-37.89L104.17-37.89L105.34-33.80Q105.63-32.92 106.03-31.54Q106.43-30.15 106.87-28.32L106.87-28.32L107.38-26.21L109.28-18.91Q109.57-19.93 110.01-21.17L110.01-21.17Q110.96-23.80 113.15-28.91L113.15-28.91L114.54-32.27L115.63-34.89Q117.68-39.86 118.55-42.49L118.55-42.49Q119.28-44.68 119.57-45.77L119.57-45.77L120.81-49.57Q120.89-49.64 121.11-48.98Q121.33-48.33 121.91-48.25L121.91-48.25Q122.42-48.25 122.93-48.36Q123.44-48.47 123.73-48.47L123.73-48.47Q124.68-48.47 124.90-48.11L124.90-48.11Q125.12-47.96 125.30-47.41Q125.49-46.87 125.56-46.79L125.56-46.79Q126.00-46.65 126.14-46.65L126.14-46.65Q126.73-46.65 127.75-47.08L127.75-47.08L128.12-47.16ZM137.46-44.82Q138.12-45.04 138.77-45.04L138.77-45.04Q139.43-45.04 139.87-44.97Q140.31-44.89 140.60-44.82L140.60-44.82Q141.47-44.60 142.28-44.60L142.28-44.60Q142.50-44.60 143.30-45.11Q144.10-45.63 144.58-45.81Q145.05-45.99 145.20-45.55L145.20-45.55Q145.34-44.97 145.34-44.46L145.34-44.46L145.27-42.78Q145.27-42.27 145.34-42.05L145.34-42.05Q145.56-41.46 145.96-41.14Q146.37-40.81 146.58-40.59L146.58-40.59Q146.66-41.32 146.58-42.23Q146.51-43.14 146.51-43.65L146.51-43.65Q146.51-45.04 147.02-45.84L147.02-45.84Q147.02-44.82 147.17-42.78L147.17-42.78Q147.31-40.73 147.31-39.64L147.31-39.64Q147.31-32.05 147.24-28.10L147.24-28.10Q147.17-25.62 146.88-20.66L146.88-20.66Q146.73-19.34 146.58-16.72L146.58-16.72Q146-11.10 146-6.13L146-6.13L146-1.24L146 1.24Q145.49 0.36 144.54 0.36L144.54 0.36Q143.88 0.36 143.26 0.66Q142.64 0.95 142.57 0.95L142.57 0.95Q141.99 1.09 141.62 1.09L141.62 1.09Q141.47 1.09 141.04 0.95L141.04 0.95Q140.82 0.73 140.49 0.33Q140.16-0.07 139.87-0.15L139.87-0.15L139.50-0.22Q138.99-0.22 138.37 0.18Q137.75 0.58 137.60 0.73L137.60 0.73Q137.46 0.88 137.09 0.88L137.09 0.88Q136.95 0.88 136.58 0.84Q136.22 0.80 135.93 0.95L135.93 0.95Q136.00-3.94 136.44-13.29L136.44-13.29Q136.58-15.33 136.62-16.83Q136.66-18.32 136.66-19.34L136.66-19.34L136.88-25.33L137.09-31.17Q137.53-40.37 137.46-44.75L137.46-44.75L137.46-44.82ZM180.75-7.37L183.45-6.72Q185.49-6.20 186.15-5.99L186.15-5.99L186.15-5.69Q186.15-4.67 185.86-3.87L185.86-3.87Q185.71-3.43 185.49-2.92Q185.27-2.41 185.06-1.68L185.06-1.68Q184.98-1.46 184.87-1.09Q184.76-0.73 184.76-0.36L184.76-0.36L184.84 0Q184.91 0.15 185.09 0.33Q185.27 0.51 185.27 0.66L185.27 0.66Q185.27 0.80 184.98 0.88L184.98 0.88Q184.91 0.95 184.69 0.95L184.69 0.95Q184.47 0.95 184.00 0.77Q183.52 0.58 183.23 0.58L183.23 0.58Q182.94 0.73 182.68 1.02Q182.43 1.31 182.21 1.46L182.21 1.46Q182.65 1.61 183.34 1.79Q184.03 1.97 184.40 2.15Q184.76 2.34 184.76 2.63L184.76 2.63Q184.25 2.48 183.23 2.34L183.23 2.34Q181.92 2.19 181.26 1.97L181.26 1.97Q180.38 1.68 179.18 1.50Q177.97 1.31 177.46 1.24L177.46 1.24L175.78 1.02L172.50 0.44Q170.82 0.07 169.43-0.11Q168.05-0.29 166.51-0.29L166.51-0.29L165.86-0.29L165.13-0.15L164.54 0Q164.10 0.15 163.63 0.40Q163.16 0.66 162.94 0.66L162.94 0.66Q162.28 0.88 162.21 0.88L162.21 0.88L161.77 0.73L160.53-0.29Q160.02-0.29 159.51 0.18Q158.99 0.66 158.85 0.80L158.85 0.80L158.41 0.95L157.83 0.88Q157.53 0.88 157.46 0.95L157.46 0.95Q157.31-4.31 157.31-6.93L157.31-6.93Q157.31-9.13 157.46-13.36L157.46-13.36L157.97-25.48Q157.97-26.72 158.12-29.35L158.12-29.35Q158.26-33.14 158.26-35.04L158.26-35.04L158.26-39.05Q158.26-40.81 158.12-44.75L158.12-44.75Q158.63-45.04 159.43-45.04L159.43-45.04L160.09-44.97Q160.45-44.89 160.89-44.82Q161.33-44.75 161.84-44.75L161.84-44.75L162.13-44.75L162.94-44.68Q163.37-44.68 163.67-45.11L163.67-45.11Q163.81-45.26 163.92-45.73Q164.03-46.21 164.18-46.21L164.18-46.21Q164.40-46.21 164.47-45.77L164.47-45.77Q164.69-45.26 164.69-43.87L164.69-43.87L168.85-43.87Q170.75-43.87 174.69-43.73L174.69-43.73Q177.97-43.58 179.43-43.36L179.43-43.36Q183.74-42.63 184.33-42.49L184.33-42.49L184.33-42.12Q184.33-41.24 184.11-40.37L184.11-40.37Q183.96-39.86 183.85-39.35Q183.74-38.84 183.59-38.25L183.59-38.25Q183.45-37.23 183.45-37.01L183.45-37.01Q183.45-36.57 183.52-36.43L183.52-36.43Q183.59-36.28 183.74-36.13Q183.89-35.99 183.89-35.84L183.89-35.84Q183.89-35.77 183.67-35.62L183.67-35.62Q183.59-35.55 183.23-35.55L183.23-35.55L182.14-35.62Q181.77-35.55 181.62-35.19Q181.48-34.82 181.41-34.67L181.41-34.67Q181.84-34.60 182.39-34.53Q182.94-34.46 183.23-34.35Q183.52-34.24 183.59-33.95L183.59-33.95L180.60-34.09Q179.51-34.24 177.39-34.24L177.39-34.24Q176.88-34.31 175.78-34.31L175.78-34.31Q175.20-34.38 172.97-34.60Q170.75-34.82 168.56-34.82L168.56-34.82Q167.24-34.97 166.59-34.97L166.59-34.97L166.59-27.52L167.61-27.59Q168.92-27.74 170.42-27.74Q171.92-27.74 172.35-27.74L172.35-27.74L176.81-28.03Q177.83-28.25 179.73-28.40L179.73-28.40Q179.51-28.40 179.51-27.81L179.51-27.81Q179.51-27.23 179.73-26.35Q179.95-25.48 179.95-25.26L179.95-25.26Q180.02-24.97 180.02-24.31L180.02-24.31L180.02-23.94Q179.95-23.65 179.80-23.32Q179.65-22.99 179.65-22.63L179.65-22.63Q179.65-22.12 179.87-21.54Q180.09-20.95 180.16-20.80L180.16-20.80L180.24-19.34L169.73-18.54Q168.56-18.32 166.00-18.18L166.00-18.18L165.93-16.86Q165.56-12.63 165.56-9.20L165.56-9.20Q167.10-9.20 169.87-9.05L169.87-9.05L171.55-8.91Q173.45-8.76 175.27-8.47L175.27-8.47Q177.90-8.10 180.75-7.37L180.75-7.37ZM179.73-28.40L179.73-28.40ZM226.23-2.41Q226.37-0.22 226.37 0.95L226.37 0.95Q226.15 0.95 225.97 0.69Q225.79 0.44 225.50 0.44L225.50 0.44Q224.91 0.44 223.16 0.88L223.16 0.88L221.99 0.88Q221.70 0.73 221.45 0.55Q221.19 0.36 220.97 0.36L220.97 0.36L220.61 0.36Q220.10 0.36 219.62 0.58Q219.15 0.80 218.93 0.88L218.93 0.88L217.39 0.95L217.39-1.82Q216.96-1.68 216.45-1.39Q215.93-1.09 215.50-0.95L215.50-0.95Q214.84-0.80 213.93-0.55Q213.01-0.29 211.77-0.07L211.77-0.07Q209.73 0.29 207.83 0.29L207.83 0.29Q205.79 0.29 203.67-0.15L203.67-0.15Q203.01-0.36 201.74-0.77Q200.46-1.17 199.51-1.75L199.51-1.75Q198.20-2.41 196.37-4.09L196.37-4.09Q195.49-4.89 194.80-5.84Q194.11-6.79 193.89-7.08L193.89-7.08Q192.43-9.78 192.21-10.29L192.21-10.29Q191.99-10.88 191.33-13.65L191.33-13.65Q190.97-15.33 190.68-18.40L190.68-18.40L190.53-19.93Q190.53-21.17 190.82-22.26L190.82-22.26L190.82-25.99Q191.26-29.42 191.70-30.81L191.70-30.81Q192.21-33.58 193.30-35.92L193.30-35.92Q193.89-37.45 194.55-38.40L194.55-38.40Q194.98-39.49 196.30-40.81L196.30-40.81Q197.25-42.05 198.49-43.00L198.49-43.00Q199.14-43.58 200.09-44.06Q201.04-44.53 201.41-44.75L201.41-44.75Q203.31-45.48 204.40-45.70L204.40-45.70Q205.93-45.92 207.47-45.92L207.47-45.92Q210.53-45.92 212.94-45.19L212.94-45.19Q214.69-44.68 217.76-43.36L217.76-43.36Q218.93-42.85 222.29-41.10L222.29-41.10Q222.36-41.03 222.36-40.59L222.36-40.59Q222.36-40.15 222.07-39.78Q221.77-39.42 221.41-39.05L221.41-39.05Q221.12-38.76 220.61-38.32Q220.10-37.89 219.88-37.59L219.88-37.59Q219.73-37.38 219.55-37.19Q219.37-37.01 219.29-36.86L219.29-36.86Q219.22-36.79 219.22-36.43L219.22-36.43Q219.22-36.21 219.51-35.70L219.51-35.70Q220.31-34.89 220.53-34.60L220.53-34.60Q220.68-34.46 220.68-34.16L220.68-34.16L220.02-34.53Q219.22-34.75 217.32-35.92L217.32-35.92Q215.72-36.79 214.62-37.08L214.62-37.08L213.60-37.23L213.09-37.16L212.21-36.86Q213.01-36.57 214.33-35.99L214.33-35.99L216.01-35.26Q219.66-33.51 219.66-32.63L219.66-32.63Q217.10-34.24 214.62-35.26L214.62-35.26Q214.04-35.48 213.42-35.73Q212.80-35.99 212.14-36.21L212.14-36.21L209.58-36.86Q209.15-37.01 208.49-37.01Q207.83-37.01 207.69-37.01L207.69-37.01Q206.66-37.01 206.30-36.94L206.30-36.94Q205.64-36.86 204.98-36.57L204.98-36.57L203.96-35.84Q203.31-35.41 203.01-34.89L203.01-34.89Q202.72-34.60 202.50-34.13Q202.28-33.65 202.14-33.43L202.14-33.43Q201.41-32.05 200.82-29.93L200.82-29.93Q200.24-28.10 199.87-25.48L199.87-25.48Q199.73-24.38 199.66-22.92Q199.58-21.46 199.58-20.88L199.58-20.88Q199.58-18.54 199.80-16.57L199.80-16.57Q200.17-14.38 200.90-12.77L200.90-12.77Q201.63-11.24 202.65-10.22L202.65-10.22Q203.82-9.13 205.13-8.83L205.13-8.83Q206.08-8.54 207.69-8.54L207.69-8.54L208.71-8.54Q210.61-8.69 212.43-9.34L212.43-9.34Q213.45-9.56 214.40-10.04Q215.35-10.51 216.01-10.91Q216.66-11.31 217.03-11.53L217.03-11.53L217.47-11.61L217.47-17.74L210.75-17.74Q210.68-17.88 210.68-18.40L210.68-18.40Q210.68-18.98 210.75-19.13L210.75-19.13L210.75-22.92Q210.75-23.58 210.68-23.80L210.68-23.80Q210.61-23.94 210.50-24.05Q210.39-24.16 210.39-24.31L210.39-24.31Q210.39-24.38 210.53-24.53L210.53-24.53Q210.68-24.67 210.82-24.67L210.82-24.67L211.19-24.67Q211.41-24.67 211.48-24.75L211.48-24.75Q211.63-24.89 211.70-25.29Q211.77-25.70 211.85-25.84L211.85-25.84Q211.48-25.84 211.04-26.02Q210.61-26.21 210.39-26.28L210.39-26.28Q210.75-26.28 211.30-26.43Q211.85-26.57 212.28-26.64L212.28-26.64L215.20-26.64Q215.86-26.64 216.81-26.54Q217.76-26.43 218.42-26.35L218.42-26.35L220.39-26.28Q221.04-26.28 221.34-26.35L221.34-26.35Q221.85-26.43 222.32-26.50Q222.80-26.57 223.31-26.57L223.31-26.57Q223.09-26.57 223.09-25.70L223.09-25.70Q223.09-24.75 223.16-24.16Q223.23-23.58 223.23-23.36L223.23-23.36L223.23-22.41L223.67-22.56Q223.82-22.70 223.89-22.89Q223.96-23.07 224.11-23.07L224.11-23.07Q224.18-23.07 224.40-22.85L224.40-22.85Q224.55-22.41 224.55-22.26L224.55-22.26L224.48-21.39Q224.48-21.24 224.51-21.17Q224.55-21.10 224.55-21.02L224.55-21.02Q224.69-20.73 225.06-20.55Q225.42-20.37 225.64-20.22L225.64-20.22Q225.64-21.17 225.86-22.01Q226.08-22.85 226.15-23.07L226.15-23.07L226.45-19.34L226.45-14.89Q226.45-13.72 226.30-11.24L226.30-11.24L226.23-8.83Q226.23-8.39 226.30-8.39L226.30-8.39Q226.67-8.18 226.81-7.81L226.81-7.81Q226.88-7.66 227.03-7.45Q227.18-7.23 227.40-7.23L227.40-7.23L226.23-6.42L226.23-2.41ZM242.80-45.99Q244.26-45.99 244.26-46.35L244.26-46.35Q244.26-46.50 242.43-46.65L242.43-46.65Q238.93-46.79 238.78-47.38L238.78-47.38Q238.78-47.52 243.16-47.52L243.16-47.52Q252.65-47.52 259.11-44.38Q265.57-41.24 268.57-33.14L268.57-33.14L268.57-32.41Q268.57-31.75 268.42-30.15L268.42-30.15L267.91-28.32L267.84-28.03Q267.03-25.55 265.79-23.72L265.79-23.72Q264.63-21.68 262.73-20.44L262.73-20.44Q261.05-18.91 258.93-17.88L258.93-17.88Q257.76-17.23 256.30-16.72L256.30-16.72Q257.18-14.31 257.84-12.63L257.84-12.63L258.93-9.93L260.10-6.93Q260.32-6.42 261.12-4.71Q261.92-2.99 262.80-1.68L262.80-1.68L265.06 1.82Q264.84 1.53 264.55 1.53L264.55 1.53Q263.68 1.53 262.22 2.99L262.22 2.99Q261.49 3.50 261.12 3.58L261.12 3.58Q260.90 3.58 260.65 3.50Q260.39 3.43 260.25 3.43L260.25 3.43L260.03 3.50Q259.44 3.65 259.08 4.09Q258.71 4.53 258.49 4.75L258.49 4.75Q258.20 4.96 257.87 5.07Q257.54 5.18 257.25 5.40L257.25 5.40Q255.28 2.04 253.24-1.68L253.24-1.68Q251.41-5.18 250.17-8.18L250.17-8.18Q248.93-11.02 248.20-13.80L248.20-13.80L247.98-14.60L243.02-14.38L243.02-4.53Q243.31-2.99 243.31-1.17L243.31-1.17Q243.09-1.24 242.94-1.61Q242.80-1.97 242.51-1.97L242.51-1.97Q241.56-1.97 240.32-1.24L240.32-1.24Q239.59-1.09 239.51-1.09L239.51-1.09Q239.44-1.09 239.00-1.24L239.00-1.24Q238.78-1.39 238.49-1.72Q238.20-2.04 237.98-2.12L237.98-2.12L237.62-2.19Q237.18-2.19 236.74-1.79Q236.30-1.39 236.08-1.24L236.08-1.24L235.57-1.09L234.91-1.17Q234.69-1.17 234.69-1.09L234.69-1.09L234.69-43.87Q235.28-44.09 235.79-44.09L235.79-44.09Q236.37-44.09 237.40-43.91Q238.42-43.73 238.86-43.73L238.86-43.73L239.22-43.73Q239.95-43.73 239.95-43.87L239.95-43.87L239.95-44.46Q239.95-44.82 239.44-45.11L239.44-45.11Q239.22-45.26 238.60-45.41Q237.98-45.55 237.98-45.70L237.98-45.70Q237.98-45.84 238.64-45.92L238.64-45.92Q239.08-46.06 239.91-46.06Q240.75-46.06 241.05-46.06L241.05-46.06Q241.41-45.99 242.29-45.99L242.29-45.99L242.80-45.99ZM259.73-32.78Q259.73-33.73 259.51-34.46L259.51-34.46Q259.30-35.26 258.71-35.84L258.71-35.84Q258.20-36.43 257.18-36.94L257.18-36.94Q256.30-37.59 254.92-38.03L254.92-38.03Q253.46-38.54 252.29-38.84L252.29-38.84Q249.44-39.49 246.30-39.71L246.30-39.71Q245.57-39.86 244.66-39.89Q243.75-39.93 243.24-39.93L243.24-39.93L243.38-38.54L243.38-28.47Q243.38-26.28 243.24-22.34L243.24-22.34L244.19-22.34Q246.30-22.34 248.71-22.70L248.71-22.70Q250.24-22.92 252.65-23.65L252.65-23.65Q253.82-24.16 255.94-25.26L255.94-25.26Q258.35-26.94 259.22-29.35L259.22-29.35L259.37-29.78L259.44-30.15L259.51-30.37Q259.51-30.66 259.59-30.73L259.59-30.73Q259.73-31.75 259.73-32.12L259.73-32.12L259.73-32.78ZM305.36-10.73Q307.04-8.39 309.45-5.99L309.45-5.99Q309.16-6.20 308.94-6.20L308.94-6.20Q308.64-6.20 308.57-6.13L308.57-6.13Q308.35-6.06 307.91-5.55L307.91-5.55Q307.40-4.67 307.33-4.45L307.33-4.45Q307.11-4.16 307.11-3.80L307.11-3.80Q307.04-3.72 306.78-3.32Q306.53-2.92 305.94-2.92L305.94-2.92L305.14-2.99Q304.85-2.99 304.78-2.92L304.78-2.92Q304.41-2.55 304.26-1.97L304.26-1.97Q304.12-0.95 304.12-0.73L304.12-0.73Q303.97-0.29 303.53 0L303.53 0Q303.46 0.07 303.17 0.51L303.17 0.51Q300.40-1.90 298.13-5.55L298.13-5.55L296.45-8.10L282.80-5.26L282.58-3.50Q282.36-1.90 282.29-0.69Q282.22 0.51 282.15 1.31L282.15 1.31L281.93 3.87Q281.71 3.72 281.56 3.32Q281.42 2.92 281.12 2.92L281.12 2.92L280.61 2.99Q279.96 3.21 279.52 3.39Q279.08 3.58 278.86 3.65L278.86 3.65Q278.71 3.72 278.13 3.72L278.13 3.72Q277.84 3.72 277.55 3.58L277.55 3.58Q277.25 3.36 277.00 2.96Q276.74 2.55 276.60 2.48L276.60 2.48L276.23 2.41Q275.65 2.41 274.37 2.85Q273.09 3.28 272.95 3.50L272.95 3.50Q273.02 0.15 273.68-4.38L273.68-4.38L273.90-6.13Q274.41-9.71 274.85-11.97L274.85-11.97Q275.28-14.45 276.31-19.27L276.31-19.27L277.40-24.67L277.55-25.55Q277.84-27.08 278.06-28.10L278.06-28.10L279.23-34.67Q280.03-39.86 280.10-44.60L280.10-44.60Q280.69-44.82 281.20-44.82L281.20-44.82Q281.27-44.82 282.29-44.68L282.29-44.68Q283.61-44.31 284.41-44.31L284.41-44.31L285.36-44.24Q285.80-44.24 286.16-44.60L286.16-44.60Q286.38-44.75 286.56-45.26Q286.74-45.77 286.82-45.77L286.82-45.77Q287.04-45.77 287.11-45.33L287.11-45.33Q287.18-44.75 287.18-43.51L287.18-43.51L289.30-43.58Q289.59-43.65 289.96-43.73Q290.32-43.80 290.58-43.91Q290.83-44.02 290.98-44.38L290.98-44.38Q291.05-44.53 291.12-45.00Q291.20-45.48 291.34-45.48L291.34-45.48Q291.64-45.48 291.71-45.04L291.71-45.04L292.58-41.83Q292.88-41.17 293.35-41.03Q293.83-40.88 293.97-40.81L293.97-40.81Q293.83-41.32 293.50-42.67Q293.17-44.02 293.17-44.89L293.17-44.89Q293.17-45.19 293.31-45.77L293.31-45.77Q293.68-44.16 294.19-42.70L294.19-42.70L295.07-39.35Q296.75-32.27 297.69-29.35L297.69-29.35L299.23-24.31Q299.81-22.12 300.54-20.44L300.54-20.44L301.42-18.25L303.90-18.69Q303.75-18.32 303.46-18.18Q303.17-18.03 303.17-17.81L303.17-17.81Q303.31-17.30 303.46-17.15L303.46-17.15Q303.68-16.72 303.94-16.21Q304.19-15.69 304.26-15.62L304.26-15.62Q304.26-15.62 304.41-14.89L304.41-14.89Q304.56-14.45 304.41-14.31L304.41-14.31Q304.41-14.09 304.12-13.72Q303.83-13.36 303.83-13.21L303.83-13.21L303.90-12.99Q304.34-12.19 305.36-10.73L305.36-10.73ZM284.63-14.96L286.45-15.26Q287.62-15.40 290.10-15.84L290.10-15.84Q290.91-16.06 292.51-16.35L292.51-16.35L291.12-19.56Q289.96-22.92 289.74-23.72L289.74-23.72Q289.37-24.89 288.57-29.56L288.57-29.56Q288.42-30.51 288.24-31.54Q288.06-32.56 287.84-33.51L287.84-33.51L286.60-26.94Q286.53-26.64 286.16-23.65L286.16-23.65Q285.87-20.59 285.58-19.34L285.58-19.34L284.63-14.96ZM351.79-41.61Q352.15-41.17 352.95-20.40Q353.76 0.36 353.76 4.23L353.76 4.23Q353.61 4.16 353.43 3.69Q353.25 3.21 352.95 3.21L352.95 3.21L352.30 3.36Q351.64 3.50 351.24 3.80Q350.84 4.09 350.69 4.16L350.69 4.16Q350.47 4.31 349.89 4.31L349.89 4.31L349.45 4.16Q349.23 4.01 348.94 3.58Q348.65 3.14 348.36 3.07L348.36 3.07L348.14 2.99Q347.63 2.99 347.08 3.50Q346.53 4.01 346.38 4.16L346.38 4.16L344.93 4.31Q344.78-3.36 344.49-10.73L344.49-10.73L343.83-27.67Q343.47-27.23 343.17-26.83Q342.88-26.43 342.52-25.99L342.52-25.99L341.57-24.89L341.42-24.67L340.55-23.65L334.19-18.03L331.79-20.66L329.38-23.43L327.04-25.91Q325.87-27.08 325.36-27.74L325.36-27.74L324.34-28.98Q324.70-25.48 324.78-22.05L324.78-22.05L325.00-18.91L326.16-0.29Q325.87-0.29 325.69-0.73Q325.51-1.17 325.29-1.17L325.29-1.17Q324.85-1.17 324.70-1.09L324.70-1.09Q324.19-0.95 323.72-0.73Q323.24-0.51 323.10-0.36L323.10-0.36L322.30-0.22Q322.22-0.22 321.78-0.36L321.78-0.36Q321.64-0.44 321.31-0.84Q320.98-1.24 320.76-1.31L320.76-1.31Q320.69-1.39 320.47-1.39L320.47-1.39Q320.03-1.39 319.52-0.95Q319.01-0.51 318.72-0.36L318.72-0.36L318.28-0.22L317.70-0.29Q317.40-0.29 317.33-0.22L317.33-0.22L317.19-3.65Q316.89-10.66 316.60-14.16L316.60-14.16Q316.31-18.61 315.58-26.50L315.58-26.50Q314.63-36.94 314.56-46.87L314.56-46.87Q315.00-47.08 315.58-47.08L315.58-47.08L316.67-47.01Q317.99-46.65 318.72-46.65L318.72-46.65L319.59-46.57Q320.11-46.57 320.40-47.01L320.40-47.01Q320.54-47.16 320.69-47.60Q320.83-48.03 320.98-48.03L320.98-48.03Q321.13-48.03 321.20-47.60L321.20-47.60Q321.35-47.16 321.35-46.28L321.35-46.28L321.35-45.33Q321.35-44.89 321.49-44.16L321.49-44.16Q321.64-43.51 322.04-43.25Q322.44-43.00 322.59-42.85L322.59-42.85L322.59-44.16Q322.51-44.24 322.22-44.71Q321.93-45.19 321.93-45.77L321.93-45.77L322.66-44.82L322.59-46.79Q322.59-47.74 322.95-48.03L322.95-48.03Q322.95-47.08 323.06-45.88Q323.17-44.68 323.17-44.09L323.17-44.09L323.97-43.07L326.02-40.52Q327.55-38.62 330.76-35.11L330.76-35.11L333.17-32.48Q333.46-32.19 333.76-31.83Q334.05-31.46 334.34-31.24L334.34-31.24L334.70-30.73Q334.70-30.59 334.74-30.55Q334.78-30.51 334.78-30.51L334.78-30.51L335.00-30.59L335.14-30.81L335.58-31.24Q336.02-31.68 336.31-32.19L336.31-32.19Q337.55-33.58 337.92-34.16L337.92-34.16Q339.38-35.99 340.69-38.54L340.69-38.54Q341.42-39.71 341.90-40.59Q342.37-41.46 342.66-42.05L342.66-42.05L343.76-44.09L343.76-45.26Q344.19-45.41 344.49-45.41L344.49-45.41L345.95-45.63Q349.74-46.28 350.47-46.28L350.47-46.28Q350.62-46.28 350.62-45.84L350.62-45.84L350.62-42.78Q350.62-41.10 351.20-41.10L351.20-41.10Q351.42-41.10 351.60-41.28Q351.79-41.46 351.79-41.61L351.79-41.61ZM323.32-41.46Q323.61-41.32 323.94-41.32Q324.27-41.32 324.56-41.32L324.56-41.32Q324.19-41.83 323.90-42.27Q323.61-42.70 323.24-43.14L323.24-43.14Q323.32-42.49 323.32-41.46L323.32-41.46ZM351.79-41.61L351.79-41.61Z"
          fill="#ffffff" transform="matrix(1,0,0,1,31.06500000000001,98.58835449218753)"></path>
</svg>
